<svg width="20" height="20" viewBox="0 0 20 20" fill="none" xmlns="http://www.w3.org/2000/svg">
<g id="Group">
<path id="Vector (Stroke)" fill-rule="evenodd" clip-rule="evenodd" d="M10.0001 4.99998C8.42211 4.99998 7.14293 6.27917 7.14293 7.85713C7.14293 9.43508 8.42211 10.7143 10.0001 10.7143C11.578 10.7143 12.8572 9.43508 12.8572 7.85713C12.8572 6.27917 11.578 4.99998 10.0001 4.99998ZM5.71436 7.85713C5.71436 5.49019 7.63313 3.57141 10.0001 3.57141C12.367 3.57141 14.2858 5.49019 14.2858 7.85713C14.2858 10.2241 12.367 12.1428 10.0001 12.1428C7.63313 12.1428 5.71436 10.2241 5.71436 7.85713Z" fill="#999999"/>
<path id="Vector (Stroke)_2" fill-rule="evenodd" clip-rule="evenodd" d="M9.99994 14.2877C8.89717 14.2877 7.81294 14.5714 6.85149 15.1115C5.89003 15.6516 5.08368 16.4299 4.50994 17.3717C4.30469 17.7086 3.86521 17.8153 3.52831 17.61C3.19142 17.4048 3.08469 16.9653 3.28994 16.6284C3.99117 15.4774 4.97672 14.5261 6.15183 13.866C7.32695 13.2059 8.65211 12.8591 9.99994 12.8591C11.3478 12.8591 12.6729 13.2059 13.848 13.866C15.0232 14.5261 16.0087 15.4774 16.7099 16.6284C16.9152 16.9653 16.8085 17.4048 16.4716 17.61C16.1347 17.8153 15.6952 17.7086 15.4899 17.3717C14.9162 16.4299 14.1098 15.6516 13.1484 15.1115C12.1869 14.5714 11.1027 14.2877 9.99994 14.2877Z" fill="#999999"/>
<path id="Vector (Stroke)_3" fill-rule="evenodd" clip-rule="evenodd" d="M10 1.42857C5.26613 1.42857 1.42857 5.26613 1.42857 10C1.42857 14.7339 5.26613 18.5714 10 18.5714C14.7339 18.5714 18.5714 14.7339 18.5714 10C18.5714 5.26613 14.7339 1.42857 10 1.42857ZM0 10C0 4.47715 4.47715 0 10 0C15.5228 0 20 4.47715 20 10C20 15.5228 15.5228 20 10 20C4.47715 20 0 15.5228 0 10Z" fill="#999999"/>
</g>
</svg>
