<svg width="120" height="48" viewBox="0 0 120 48" fill="none" xmlns="http://www.w3.org/2000/svg">
<rect width="120" height="48" fill="#ED1B24"/>
<g clip-path="url(#clip0_1002_340)">
<path d="M30.301 12.1671C30.1463 12.1671 30.0215 12.0375 30.0215 11.8785V10.9176C30.0215 10.7579 30.147 10.6291 30.301 10.6291H36.4743V9.6428C36.4743 9.4831 36.5998 9.35425 36.7539 9.35425H37.8394C37.9941 9.35425 38.1189 9.48379 38.1189 9.6428V11.8799C38.1189 12.0389 37.9941 12.1671 37.8407 12.1671H30.301Z" fill="white"/>
<path d="M37.8399 6H36.7536C36.5993 6 36.4741 6.12919 36.4741 6.28855V8.52497C36.4741 8.68433 36.5993 8.81352 36.7536 8.81352H37.8399C37.9942 8.81352 38.1194 8.68433 38.1194 8.52497V6.28855C38.1194 6.12919 37.9942 6 37.8399 6Z" fill="white"/>
<path d="M60.5715 13.4536H59.4839C59.3299 13.4536 59.2051 13.5825 59.2051 13.7415V22.9202C59.2051 23.0792 59.3299 23.2081 59.4839 23.2081H60.5715C60.7255 23.2081 60.8503 23.0792 60.8503 22.9202V13.7415C60.8503 13.5825 60.7255 13.4536 60.5715 13.4536Z" fill="white"/>
<path d="M31.875 23.3183C31.7714 23.4239 31.6074 23.4307 31.4972 23.3334C31.0696 22.9551 30.6135 22.4712 30.4023 22.0723C30.1354 21.5692 30 21.0243 30 20.4534C30 20.0778 30.0531 19.7207 30.158 19.3904C30.2623 19.0614 30.409 18.755 30.5949 18.4802C30.7801 18.206 31.0026 17.9586 31.2562 17.7448C31.5085 17.5316 31.7873 17.3486 32.0848 17.2006C32.3816 17.0532 32.6989 16.9387 33.0282 16.8613C33.3576 16.7838 33.6948 16.7448 34.0308 16.7448C34.4836 16.7448 34.9384 16.8085 35.3826 16.9353C35.7398 17.0368 36.087 17.1944 36.4163 17.4041L36.4801 17.4446V17.1361C36.4801 16.9723 36.4688 16.8167 36.4462 16.6728C36.2218 15.239 34.8501 15.0251 34.0527 15.0251C33.4001 15.0251 32.6777 15.1608 32.0708 15.3973C31.9965 15.4261 31.4262 15.6797 31.2529 15.7565C31.1792 15.7894 31.0968 15.788 31.0158 15.7503C30.9574 15.7229 30.9149 15.6694 30.8897 15.6091L30.4608 14.5755C30.401 14.4316 30.4628 14.265 30.6002 14.1999L30.8206 14.0944C30.9222 14.0416 31.0696 13.9717 31.144 13.9402C32.0828 13.5399 33.0588 13.3288 33.9651 13.3288C34.3761 13.3288 34.7777 13.372 35.1595 13.4563C35.4928 13.5303 35.8215 13.6468 36.1355 13.8038L36.1627 13.8175L37.1912 12.7181C37.2928 12.6098 37.4574 12.6002 37.5703 12.6955L38.4108 13.4097C38.537 13.5166 38.5476 13.7119 38.4347 13.8333L37.4674 14.8689L37.4899 14.8983C37.8073 15.3164 37.9985 15.7784 38.0576 16.2725C38.0842 16.4898 38.1121 16.7441 38.1121 17.0045V22.9215C38.1121 23.0812 37.9866 23.21 37.8325 23.21H36.7609C36.6062 23.21 36.4814 23.0805 36.4814 22.9215V20.1416C36.4515 19.9154 36.3898 19.7139 36.2975 19.5377C36.1607 19.2759 35.9768 19.0545 35.7504 18.8811C35.5214 18.7057 35.2558 18.5713 34.961 18.4822C34.6635 18.3918 34.3508 18.3465 34.0315 18.3465C33.7121 18.3465 33.414 18.3931 33.1239 18.4843C32.8364 18.5755 32.5801 18.7112 32.3623 18.8873C32.1459 19.0628 31.9706 19.2835 31.8405 19.5439C31.711 19.803 31.6459 20.1094 31.6459 20.4541C31.6459 20.7735 31.7296 21.0867 31.8942 21.3842C32.0058 21.5857 32.3119 21.9106 32.5881 22.1662C32.7076 22.2772 32.7109 22.4691 32.5967 22.5857L31.8763 23.3197L31.875 23.3183Z" fill="white"/>
<path d="M53.8072 23.3581C53.5476 23.3581 53.284 23.3259 53.0231 23.2621C52.7621 23.1984 52.5039 23.1052 52.2555 22.9859C52.0072 22.8667 51.7609 22.72 51.5239 22.55C51.3725 22.4417 51.2224 22.3211 51.079 22.1936L51.01 22.1319V22.9194C51.01 23.0791 50.8845 23.208 50.7305 23.208H49.5447C49.39 23.208 49.2651 23.0784 49.2651 22.9194V22.537C49.2651 22.073 49.4192 21.6227 49.7013 21.2622C49.7087 21.2526 49.7093 21.2389 49.7033 21.2286L49.6774 21.1868C49.4769 20.8605 49.3707 20.4829 49.3707 20.0963V13.7428C49.3707 13.5831 49.4962 13.4542 49.6502 13.4542H50.7305C50.8852 13.4542 51.01 13.5838 51.01 13.7428V19.0957C51.01 19.3396 51.0472 19.5768 51.1209 19.8023C51.1952 20.0291 51.2995 20.245 51.4309 20.4438C51.563 20.6439 51.7204 20.8297 51.8983 20.9962C52.0769 21.1635 52.2708 21.3081 52.476 21.426C52.6805 21.5439 52.8976 21.6371 53.1193 21.7022C53.3398 21.7666 53.5642 21.7995 53.7859 21.7995C54.0588 21.7995 54.3277 21.755 54.586 21.6672C54.8416 21.5802 55.07 21.45 55.2652 21.2793C55.4597 21.1093 55.6177 20.8962 55.7359 20.646C55.8534 20.3965 55.9132 20.1032 55.9132 19.7749V13.7428C55.9132 13.5831 56.0387 13.4542 56.1927 13.4542H57.273C57.4277 13.4542 57.5525 13.5838 57.5525 13.7428V19.7749C57.5525 20.1662 57.5033 20.5315 57.4057 20.8592C57.3088 21.1868 57.1714 21.487 56.9981 21.7515C56.8248 22.0154 56.617 22.2512 56.3806 22.452C56.1456 22.6514 55.886 22.8207 55.6091 22.9551C55.3322 23.0894 55.0375 23.1915 54.734 23.258C54.4299 23.3252 54.1179 23.3588 53.8072 23.3588V23.3581Z" fill="white"/>
<path d="M44.0904 23.3581C43.8308 23.3581 43.5672 23.3259 43.3063 23.2621C43.0453 23.1984 42.7871 23.1052 42.5387 22.9859C42.2904 22.8667 42.0441 22.72 41.8071 22.55C41.6557 22.4417 41.5056 22.3211 41.3622 22.1936L41.2932 22.1319V22.9194C41.2932 23.0791 41.1677 23.208 41.0137 23.208H39.8279C39.6732 23.208 39.5483 23.0784 39.5483 22.9194V22.537C39.5483 22.073 39.7024 21.6227 39.9846 21.2622C39.9919 21.2526 39.9925 21.2389 39.9865 21.2286L39.9606 21.1861C39.7601 20.8598 39.6539 20.4822 39.6539 20.0963V13.7428C39.6539 13.5831 39.7794 13.4542 39.9334 13.4542H41.0137C41.1684 13.4542 41.2932 13.5838 41.2932 13.7428V19.0957C41.2932 19.3396 41.3304 19.5768 41.4041 19.8023C41.4784 20.0291 41.5827 20.245 41.7141 20.4438C41.8462 20.6439 42.0036 20.8297 42.1815 20.9962C42.3601 21.1635 42.554 21.3081 42.7592 21.426C42.9637 21.5439 43.1808 21.6371 43.4025 21.7022C43.623 21.7666 43.8474 21.7995 44.0691 21.7995C44.342 21.7995 44.6109 21.755 44.8692 21.6672C45.1248 21.5802 45.3532 21.45 45.5484 21.2793C45.7429 21.1093 45.9009 20.8962 46.0191 20.646C46.1366 20.3965 46.1964 20.1032 46.1964 19.7749V13.7428C46.1964 13.5831 46.3219 13.4542 46.4759 13.4542H47.5562C47.7109 13.4542 47.8357 13.5838 47.8357 13.7428V19.7749C47.8357 20.1662 47.7865 20.5315 47.6889 20.8592C47.592 21.1868 47.4546 21.487 47.2813 21.7515C47.108 22.0154 46.9002 22.2512 46.6638 22.452C46.4288 22.6514 46.1692 22.8207 45.8923 22.9551C45.6155 23.0894 45.3207 23.1915 45.0172 23.258C44.7132 23.3252 44.4011 23.3588 44.0904 23.3588V23.3581Z" fill="white"/>
<path d="M67.141 23.3581C66.8814 23.3581 66.6178 23.3259 66.3569 23.2621C66.0966 23.1984 65.8383 23.1059 65.5893 22.9859C65.341 22.8667 65.0954 22.72 64.8583 22.5493C64.707 22.441 64.5569 22.3204 64.4135 22.1929L64.3445 22.1312V22.9187C64.3445 23.0784 64.219 23.2073 64.0649 23.2073H62.8791C62.7244 23.2073 62.5996 23.0778 62.5996 22.9187V22.5267C62.5996 22.0695 62.7517 21.6254 63.0298 21.2697L63.0484 21.2457L63.0066 21.1779C62.8094 20.8571 62.7052 20.4856 62.7052 20.1059V13.7428C62.7052 13.5831 62.8307 13.4542 62.9847 13.4542H64.0649C64.2196 13.4542 64.3445 13.5838 64.3445 13.7428V19.0957C64.3445 19.3396 64.3816 19.5768 64.4553 19.8023C64.529 20.0291 64.6333 20.245 64.7654 20.4438C64.8975 20.6439 65.0549 20.8297 65.2328 20.9962C65.4114 21.1635 65.6053 21.3081 65.8104 21.426C66.0149 21.5439 66.232 21.6371 66.4538 21.7022C66.6742 21.7666 66.8986 21.7995 67.1204 21.7995C67.3933 21.7995 67.6622 21.755 67.9198 21.6672C68.1754 21.5802 68.4038 21.45 68.599 21.2793C68.7935 21.1093 68.9516 20.8969 69.0697 20.646C69.1873 20.3965 69.247 20.1032 69.247 19.7749V13.7428C69.247 13.5831 69.3725 13.4542 69.5265 13.4542H70.6068C70.7615 13.4542 70.8863 13.5838 70.8863 13.7428V19.7749C70.8863 20.1662 70.8371 20.5315 70.7395 20.8592C70.6426 21.1868 70.5052 21.487 70.3319 21.7515C70.1586 22.0154 69.9508 22.2512 69.7144 22.452C69.4794 22.6514 69.2198 22.8207 68.9429 22.9551C68.6661 23.0894 68.3713 23.1915 68.0678 23.258C67.7638 23.3252 67.4517 23.3588 67.141 23.3588V23.3581Z" fill="white"/>
<path d="M63.0691 12.1671C62.9144 12.1671 62.7896 12.0375 62.7896 11.8785V10.9176C62.7896 10.7579 62.915 10.6291 63.0691 10.6291H67.0653V9.6428C67.0653 9.4831 67.1908 9.35425 67.3449 9.35425H68.4397C68.5944 9.35425 68.7192 9.48379 68.7192 9.6428V10.6291H69.2477V9.6428C69.2477 9.4831 69.3732 9.35425 69.5272 9.35425H70.6075C70.7622 9.35425 70.887 9.48379 70.887 9.6428V11.8785C70.887 12.0382 70.7615 12.1671 70.6075 12.1671H63.0691Z" fill="white"/>
<path d="M77.0956 23.3793C76.5857 23.3793 76.0997 23.3101 75.6502 23.173C75.2 23.036 74.7831 22.8413 74.4099 22.5939C74.0368 22.3465 73.6995 22.0476 73.4087 21.7049C73.1172 21.3623 72.8749 20.9805 72.6877 20.5693C72.5004 20.1587 72.3637 19.7153 72.282 19.2513C72.2096 18.8428 72.1871 18.4178 72.2143 17.9881C72.2236 17.838 72.3471 17.7201 72.4945 17.7201H76.9568C77.1115 17.7201 77.2364 17.8496 77.2364 18.0087V18.9901C77.2364 19.1498 77.1109 19.2787 76.9568 19.2787H74.8953C74.5832 19.2787 74.2772 19.1971 74.0043 19.0415L73.9233 18.9956L73.9558 19.158C74.0342 19.5323 74.1656 19.8859 74.3482 20.2081C74.5301 20.5302 74.7579 20.8146 75.0261 21.0531C75.2937 21.2917 75.6057 21.4808 75.9536 21.6158C76.3015 21.7509 76.6859 21.8194 77.0976 21.8194C77.5564 21.8194 77.9853 21.7289 78.3737 21.5507C78.7621 21.3725 79.102 21.1237 79.3835 20.8119C79.6651 20.5 79.8881 20.1251 80.0468 19.6988C80.2055 19.2718 80.2852 18.8037 80.2852 18.3068C80.2852 17.8099 80.2075 17.3349 80.0541 16.9059C79.9014 16.4775 79.683 16.1019 79.4068 15.788C79.1306 15.4748 78.7933 15.226 78.4036 15.0478C78.0138 14.8696 77.4349 14.7791 76.9595 14.7791C76.6189 14.7791 76.2889 14.8285 75.9782 14.9251C75.6681 15.0217 75.376 15.1684 75.1097 15.3617C74.8428 15.5556 74.5978 15.8017 74.3821 16.0923C74.3548 16.1293 74.2506 16.2876 74.1643 16.4206C74.0906 16.5337 73.9505 16.5782 73.8277 16.5275L72.851 16.1232C72.689 16.056 72.6253 15.8538 72.7182 15.701C72.8497 15.4864 73.0197 15.215 73.0993 15.1108C73.4087 14.7085 73.7639 14.3638 74.1563 14.0848C74.5494 13.8052 74.9862 13.5893 75.4537 13.4419C75.9211 13.2946 76.4277 13.2198 76.9582 13.2198C77.4535 13.2198 78.0616 13.2829 78.4919 13.4076C78.9221 13.5324 79.3218 13.7106 79.679 13.9374C80.0369 14.1643 80.3589 14.4378 80.6357 14.751C80.9126 15.0635 81.149 15.4131 81.3382 15.7887C81.5274 16.1643 81.6735 16.5693 81.7737 16.9929C81.8733 17.4172 81.9245 17.8592 81.9245 18.3075C81.9245 18.7557 81.872 19.1985 81.7684 19.6227C81.6649 20.047 81.5141 20.4514 81.3196 20.8249C81.1244 21.1991 80.8841 21.5459 80.6039 21.8564C80.323 22.1676 79.9997 22.4397 79.6418 22.6645C79.2846 22.8893 78.8876 23.0668 78.4633 23.1909C78.0384 23.3156 77.5783 23.3787 77.0976 23.3787L77.0956 23.3793Z" fill="white"/>
<path d="M86.7618 23.3376C86.5394 23.3376 86.3223 23.3054 86.1171 23.2423C85.9133 23.18 85.7214 23.0902 85.5475 22.9771C85.3742 22.864 85.2168 22.7276 85.0794 22.5706C84.9426 22.4144 84.8264 22.2382 84.7348 22.0477L82.8512 18.1334C82.7901 18.0073 82.8246 17.8511 82.9508 17.762C82.9933 17.7318 83.0457 17.7195 83.0975 17.7195H84.2773C84.3836 17.7195 84.4812 17.7818 84.5283 17.8805L86.228 21.4302C86.2731 21.5309 86.3356 21.6049 86.4192 21.655C86.5035 21.7064 86.6197 21.7317 86.7631 21.7317C86.8521 21.7317 86.9338 21.7167 87.0068 21.6872C87.0792 21.6577 87.1429 21.6173 87.1954 21.5665C87.2471 21.5172 87.2863 21.4596 87.3142 21.3911C87.3428 21.3219 87.3567 21.2506 87.3567 21.1738V14.7524C87.1887 14.932 86.9577 15.0334 86.7153 15.0334H86.297C86.1423 15.0334 86.0175 14.9039 86.0175 14.7449V13.7422C86.0175 13.5825 86.143 13.4536 86.297 13.4536H88.7218C88.8765 13.4536 89.0013 13.5832 89.0013 13.7422V21.1526C89.0013 21.4555 88.9435 21.7441 88.8293 22.01C88.7158 22.2752 88.5564 22.509 88.3566 22.7057C88.1574 22.9017 87.9177 23.058 87.6455 23.1697C87.3733 23.2807 87.0765 23.3376 86.7631 23.3376H86.7618Z" fill="white"/>
<path d="M46.5603 26.8276C46.4056 26.8276 46.2808 26.698 46.2808 26.539V25.585C46.2808 25.5377 46.2436 25.5 46.1985 25.5H45.6965C45.5418 25.5 45.417 25.3704 45.417 25.2114V24.23C45.417 24.0703 45.5425 23.9414 45.6965 23.9414H46.9852C47.1074 23.9414 47.2209 23.964 47.3238 24.0093C47.4261 24.0538 47.5164 24.1148 47.5914 24.1909C47.7129 24.3136 47.7946 24.474 47.8318 24.6624C47.8357 24.6823 47.8371 24.7029 47.8371 24.7228V26.5404C47.8371 26.7001 47.7116 26.8289 47.5575 26.8289H46.5616L46.5603 26.8276Z" fill="white"/>
<path d="M78.5833 26.8276C76.2103 26.8276 73.8394 25.9866 71.9531 24.4966C70.0668 25.9866 67.6959 26.8276 65.323 26.8276H49.5437C49.389 26.8276 49.2642 26.698 49.2642 26.539V25.8475C49.2642 25.6878 49.3896 25.5589 49.5437 25.5589H65.3256C67.5259 25.5589 69.6625 24.7913 71.3874 23.3808L71.9664 22.9078L72.3077 23.2032C74.0664 24.7248 76.288 25.5589 78.5826 25.5589H88.7203C88.875 25.5589 88.9999 25.6885 88.9999 25.8475V26.539C88.9999 26.6987 88.8744 26.8276 88.7203 26.8276H78.5833Z" fill="white"/>
<path d="M39.1068 41.9746C38.6627 41.9746 38.2384 41.9108 37.8467 41.7854C37.4556 41.6607 37.0918 41.4818 36.7658 41.2549C36.4411 41.0288 36.1477 40.756 35.894 40.4427C35.6411 40.1316 35.4306 39.7827 35.2673 39.4064C35.1046 39.0315 34.9858 38.6278 34.9154 38.207C34.8729 37.9514 34.8609 37.2961 34.8569 36.9432C34.8556 36.8143 34.9572 36.7101 35.082 36.7101L38.988 36.7279C39.1115 36.7279 39.2117 36.8314 39.2117 36.9589V38.0809C39.2117 38.2084 39.1115 38.3119 38.988 38.3119H37.3427C37.0632 38.3119 36.787 38.2495 36.5334 38.1289L36.5712 38.2762C36.6363 38.5298 36.7313 38.7738 36.8528 39.0007C37.0021 39.2783 37.1894 39.5243 37.4105 39.7306C37.6302 39.9349 37.8852 40.0973 38.17 40.2138C38.4542 40.3297 38.7696 40.3879 39.1062 40.3879C39.4813 40.3879 39.8319 40.3105 40.1479 40.1576C40.4666 40.0041 40.7448 39.7903 40.9752 39.5223C41.2069 39.2529 41.3901 38.9287 41.5216 38.5593C41.6531 38.1871 41.7195 37.7793 41.7195 37.3475C41.7195 36.9157 41.6551 36.5011 41.5276 36.1275C41.4014 35.7561 41.2222 35.4305 40.9944 35.1598C40.768 34.8904 40.4918 34.6766 40.1738 34.5237C39.8558 34.3709 39.3578 34.2935 38.9674 34.2935C38.6879 34.2935 38.4177 34.3359 38.1627 34.4196C37.9098 34.5025 37.6707 34.6286 37.4523 34.7945C37.2332 34.9617 37.032 35.1742 36.8541 35.4257C36.8375 35.449 36.7751 35.558 36.7186 35.6581C36.6622 35.7581 36.542 35.7999 36.4385 35.7547L35.3901 35.2975C35.2653 35.2427 35.2155 35.0871 35.2845 34.9672C35.3927 34.7794 35.5388 34.5292 35.6059 34.4381C35.8741 34.0714 36.1835 33.7561 36.5248 33.5018C36.8674 33.2462 37.2478 33.0481 37.6561 32.9131C38.0631 32.7781 38.504 32.7102 38.9668 32.7102C39.3977 32.7102 39.9454 32.7678 40.3199 32.8822C40.695 32.996 41.0436 33.1591 41.3556 33.3668C41.6663 33.5738 41.9472 33.824 42.1895 34.1111C42.4292 34.3949 42.635 34.7136 42.8004 35.0577C42.9637 35.4004 43.0905 35.7691 43.1775 36.1536C43.2638 36.5422 43.3076 36.9438 43.3076 37.3482C43.3076 37.7526 43.2625 38.1584 43.1722 38.5442C43.0832 38.9287 42.9524 39.2968 42.7831 39.6381C42.6138 39.9801 42.4047 40.2968 42.161 40.5791C41.9167 40.8643 41.6345 41.1131 41.3238 41.318C41.0117 41.5243 40.6658 41.686 40.2966 41.7998C39.9262 41.9143 39.5258 41.9719 39.1068 41.9719V41.9746Z" fill="white"/>
<path d="M48.5024 41.9746C48.0582 41.9746 47.6339 41.9108 47.2422 41.7854C46.8511 41.6607 46.4873 41.4818 46.1613 41.2549C45.8366 41.0288 45.5432 40.756 45.2895 40.4427C45.0366 40.1316 44.8261 39.7827 44.6628 39.4064C44.5001 39.0315 44.3813 38.6278 44.3109 38.207C44.2684 37.9514 44.2564 37.2961 44.2525 36.9432C44.2511 36.8143 44.3527 36.7101 44.4775 36.7101L48.3835 36.7279C48.507 36.7279 48.6073 36.8314 48.6073 36.9589V38.0809C48.6073 38.2084 48.507 38.3119 48.3835 38.3119H46.7383C46.4587 38.3119 46.1825 38.2495 45.9289 38.1289L45.9668 38.2762C46.0318 38.5298 46.1268 38.7738 46.2483 39.0007C46.397 39.2783 46.5849 39.5243 46.806 39.7306C47.0257 39.9349 47.2807 40.0973 47.5655 40.2138C47.8497 40.3297 48.1651 40.3879 48.5017 40.3879C48.8768 40.3879 49.2274 40.3105 49.5434 40.1576C49.8621 40.0041 50.1403 39.7903 50.3707 39.5223C50.6024 39.2529 50.7857 38.9287 50.9165 38.5593C51.0479 38.1871 51.1143 37.7793 51.1143 37.3475C51.1143 36.9157 51.0499 36.5011 50.9224 36.1275C50.7963 35.7561 50.617 35.4305 50.3893 35.1598C50.1629 34.8904 49.8867 34.6766 49.5686 34.5237C49.2506 34.3709 48.7527 34.2935 48.3623 34.2935C48.0827 34.2935 47.8119 34.3359 47.5576 34.4196C47.3046 34.5025 47.0656 34.6286 46.8471 34.7945C46.628 34.9617 46.4269 35.1742 46.2489 35.4257C46.2323 35.449 46.1699 35.558 46.1135 35.6581C46.0571 35.7581 45.9369 35.7999 45.8333 35.7547L44.7849 35.2975C44.6601 35.2427 44.6103 35.0871 44.6794 34.9672C44.7869 34.7794 44.9337 34.5292 45.0007 34.4381C45.269 34.0714 45.5783 33.7561 45.9196 33.5018C46.2622 33.2462 46.6426 33.0481 47.0503 32.9131C47.4573 32.7781 47.8988 32.7102 48.3609 32.7102C48.7918 32.7102 49.3396 32.7678 49.7141 32.8822C50.0892 32.996 50.4377 33.1591 50.7498 33.3668C51.0605 33.5738 51.3407 33.824 51.5837 34.1111C51.8234 34.3949 52.0292 34.7136 52.1945 35.0577C52.3579 35.4004 52.4847 35.7691 52.5717 36.1536C52.658 36.5422 52.7018 36.9438 52.7018 37.3482C52.7018 37.7526 52.656 38.1584 52.5664 38.5442C52.4774 38.9287 52.3466 39.2968 52.1773 39.6381C52.008 39.9801 51.7988 40.2968 51.5552 40.5791C51.3108 40.8643 51.0287 41.1131 50.7179 41.318C50.4059 41.5243 50.06 41.686 49.6908 41.7998C49.3203 41.9143 48.92 41.9719 48.501 41.9719L48.5024 41.9746Z" fill="white"/>
<path d="M56.9004 41.9562C56.4967 41.9562 56.0957 41.8856 55.7086 41.7471C55.3182 41.6066 54.9656 41.3962 54.6609 41.1214C54.3541 40.8458 54.1038 40.4983 53.9173 40.0885C53.73 39.6786 53.6357 39.1975 53.6357 38.6601V33.151C53.6357 33.0235 53.736 32.92 53.8595 32.92H55.0001C55.1236 32.92 55.2239 33.0235 55.2239 33.151V38.6601C55.2239 38.9398 55.271 39.1886 55.3647 39.3997C55.4583 39.6108 55.5851 39.7903 55.7404 39.9329C55.8965 40.0761 56.0791 40.1858 56.2829 40.2591C56.4894 40.3338 56.7091 40.3715 56.9369 40.3715C57.1175 40.3715 57.3 40.3441 57.4813 40.2907C57.6645 40.2372 57.8432 40.1598 58.0111 40.0604C58.1798 39.961 58.3385 39.8404 58.4819 39.7019C58.6246 39.5648 58.7514 39.4079 58.859 39.2352C58.9645 39.0652 59.0495 38.8781 59.1106 38.6779C59.1704 38.4819 59.2009 38.2722 59.2009 38.0529L59.2056 33.1503C59.2056 33.0228 59.3058 32.9193 59.4293 32.9193H60.5693C60.6928 32.9193 60.793 33.0228 60.793 33.1503L60.7911 38.9548C60.7911 39.2146 60.714 39.4675 60.5713 39.6807L60.5394 39.728L60.5773 39.7705C60.7897 40.0069 60.9072 40.3174 60.9072 40.6395V41.5902C60.9072 41.7176 60.8063 41.8211 60.6828 41.8211H59.4233C59.2998 41.8211 59.1996 41.7176 59.1996 41.5902V40.987L59.0867 41.0802C59.0303 41.1268 58.9738 41.1714 58.9161 41.2139C58.7096 41.3688 58.4931 41.5024 58.2727 41.6128C58.0516 41.7224 57.8232 41.8081 57.5935 41.8664C57.3631 41.9253 57.1301 41.9555 56.901 41.9555L56.9004 41.9562Z" fill="white"/>
<path d="M63.063 40.7574C62.8651 40.3667 62.7436 39.9404 62.7157 39.4894L62.7131 32.5362C62.7131 32.2853 62.7443 32.0605 62.8047 31.8672C62.8665 31.6719 62.9548 31.4944 63.067 31.3395C63.1785 31.1853 63.3153 31.0448 63.472 30.9207C63.5769 30.8385 63.6931 30.7549 63.8179 30.674L64.0224 30.541H59.4259C59.3024 30.541 59.2021 30.4375 59.2021 30.31V29.2066C59.2021 29.0791 59.3024 28.9756 59.4259 28.9756H63.8657C63.9872 28.9756 64.1153 28.9824 64.2461 28.9948C64.3802 29.0078 64.5157 29.0345 64.6478 29.0729C64.7793 29.1113 64.9081 29.1648 65.0289 29.2312C65.1571 29.3025 65.2706 29.3957 65.3662 29.5095C65.4625 29.6233 65.5395 29.761 65.5946 29.9201C65.649 30.0777 65.6769 30.2614 65.6769 30.467C65.6769 30.6349 65.653 30.7912 65.6059 30.9303C65.5594 31.0681 65.4996 31.1928 65.4286 31.3018C65.3569 31.4128 65.2719 31.5129 65.1763 31.5993C65.0867 31.6808 64.9931 31.7535 64.8994 31.8165C64.8264 31.8679 64.7474 31.9221 64.6657 31.9769C64.5954 32.0242 64.531 32.077 64.4745 32.1339C64.4214 32.1873 64.3769 32.2476 64.3444 32.3127C64.3145 32.3689 64.2999 32.4382 64.2999 32.5177V39.3969L64.3092 39.4051L64.3119 39.4332C64.3318 39.6546 64.3962 39.8691 64.5024 40.0713C64.5575 40.1755 64.8921 40.5285 65.094 40.7375C65.1796 40.8259 65.181 40.9692 65.0973 41.0597L64.3331 41.8869C64.2455 41.9822 64.0994 41.9829 64.0104 41.889C63.7309 41.5915 63.1785 40.9891 63.061 40.7574H63.063Z" fill="white"/>
<path d="M78.021 41.9562C77.6173 41.9562 77.2163 41.8856 76.8292 41.7471C76.4388 41.6066 76.0862 41.3962 75.7815 41.1214C75.4747 40.8458 75.2244 40.4983 75.0379 40.0885C74.8506 39.6786 74.7563 39.1975 74.7563 38.6601V33.0351C74.7563 32.9721 74.8061 32.92 74.8679 32.92H76.2336C76.2947 32.92 76.3452 32.9714 76.3452 33.0351V38.6601C76.3452 38.9398 76.3923 39.1886 76.4853 39.3997C76.5795 39.6108 76.7057 39.7903 76.861 39.9329C77.0171 40.0761 77.1997 40.1858 77.4035 40.2591C77.61 40.3338 77.8297 40.3715 78.0575 40.3715C78.2381 40.3715 78.4207 40.3441 78.6019 40.2907C78.7852 40.2372 78.9638 40.1598 79.1317 40.0604C79.3004 39.961 79.4591 39.8404 79.6025 39.7019C79.7452 39.5648 79.872 39.4079 79.9796 39.2352C80.0852 39.0652 80.1701 38.8781 80.2312 38.6779C80.291 38.4819 80.3215 38.2722 80.3215 38.0529L80.3268 33.1057C80.3268 33.0029 80.4078 32.9193 80.5081 32.9193H81.7344C81.834 32.9193 81.9156 33.0029 81.9156 33.1064L81.913 39.277C81.913 39.3304 81.8971 39.3818 81.8672 39.425L81.7178 39.6443C81.6853 39.6916 81.6926 39.7567 81.7351 39.7951L81.9455 39.9877C81.9986 40.0364 82.0298 40.107 82.0292 40.1803V41.634C82.0285 41.7368 81.9475 41.8204 81.8473 41.8204H80.5028C80.4032 41.8204 80.3215 41.7368 80.3215 41.6333V41.2214C80.3215 41.1508 80.2638 41.107 80.2106 41.107C80.1867 41.107 80.1648 41.1145 80.1456 41.1303C80.1104 41.1584 80.0745 41.1858 80.038 41.2132C79.8309 41.3681 79.6144 41.5024 79.3947 41.6121C79.1736 41.7218 78.9452 41.8074 78.7154 41.8657C78.4851 41.9246 78.252 41.9548 78.0229 41.9548L78.021 41.9562Z" fill="white"/>
<path d="M78.8356 31.5999C78.74 31.5136 78.655 31.4128 78.5833 31.3025C78.5122 31.1942 78.4525 31.0687 78.406 30.931C78.3589 30.7912 78.335 30.6356 78.335 30.4676C78.335 30.262 78.3628 30.0783 78.4173 29.9207C78.4724 29.7617 78.5494 29.6239 78.6464 29.5102C78.742 29.3964 78.8555 29.3032 78.9836 29.2326C79.1038 29.1661 79.2319 29.1126 79.3647 29.0743C79.4975 29.0359 79.6323 29.0091 79.7671 28.9961C79.8979 28.9831 80.0254 28.9769 80.1475 28.9769H81.6919C81.8154 28.9769 81.9156 29.0804 81.9156 29.2079V30.3114C81.9156 30.4389 81.8154 30.5424 81.6919 30.5424H80.0121L80.346 30.8816C80.441 30.9783 80.4337 31.1386 80.3301 31.2257L79.4969 31.9255C79.4139 31.9947 79.2957 31.9947 79.2134 31.9248C79.0673 31.8 78.8568 31.6198 78.8356 31.6013V31.5999Z" fill="white"/>
<path d="M67.8786 41.9281C67.7942 42.0192 67.6542 42.0247 67.5645 41.9383C67.204 41.5881 66.8242 41.1159 66.6416 40.7574C66.4079 40.2962 66.2898 39.8006 66.2898 39.2852C66.2898 38.9336 66.3362 38.5998 66.4272 38.2928C66.5188 37.9857 66.6476 37.7013 66.8103 37.4491C66.9743 37.1948 67.1695 36.9672 67.3906 36.7719C67.6117 36.5759 67.8553 36.4079 68.1143 36.2729C68.3739 36.1372 68.6514 36.0337 68.9402 35.9638C69.227 35.8946 69.5212 35.859 69.8146 35.859C70.211 35.859 70.608 35.9206 70.9951 36.0426C71.2408 36.1201 71.4831 36.2291 71.7148 36.3661L71.8191 36.4278V36.0701C71.8191 35.7836 71.7613 35.5286 71.6478 35.312C71.2189 34.4978 70.3823 34.3141 69.7555 34.3045C69.7124 34.3018 69.6679 34.3004 69.6234 34.3004C69.3983 34.3004 69.1387 34.3312 68.8519 34.3929L68.7789 34.4087C68.6434 34.4381 68.5199 34.4704 68.4084 34.5039L68.3838 34.5122C67.9443 34.641 67.2923 34.9097 66.9663 35.0481C66.8541 35.0961 66.7266 35.042 66.6775 34.9275L66.2194 33.8583C66.1702 33.7438 66.2187 33.6095 66.3283 33.556C66.546 33.4505 66.8707 33.2929 66.9032 33.2785C67.7212 32.9173 68.6653 32.7185 69.5623 32.7185C70.4593 32.7185 71.7447 32.9255 72.6105 33.9118C73.1124 34.4834 73.3886 35.2503 73.3886 36.0707V41.5922C73.3886 41.7197 73.2884 41.8232 73.1649 41.8232H72.0422C71.9187 41.8232 71.8184 41.7197 71.8184 41.5922V39.2859C71.8184 38.9898 71.7633 38.728 71.6544 38.5073C71.5435 38.2832 71.3955 38.094 71.2142 37.946C71.029 37.7945 70.8139 37.678 70.5742 37.6005C70.3305 37.5217 70.0749 37.4819 69.814 37.4819C69.553 37.4819 69.3107 37.5217 69.0737 37.6005C68.8406 37.678 68.6335 37.7938 68.4589 37.9439C68.2849 38.0926 68.1441 38.2811 68.0399 38.5045C67.935 38.7266 67.8819 38.9898 67.8819 39.2873C67.8819 39.5559 67.9489 39.8205 68.0817 40.0734C68.1959 40.2893 68.3785 40.51 68.6248 40.7279L68.6494 40.7506C68.743 40.8376 68.749 40.9877 68.6614 41.0816L67.8772 41.9294L67.8786 41.9281Z" fill="white"/>
<path d="M30.636 25.5582H43.5716C43.9109 25.5582 44.1864 25.8427 44.1864 26.1929C44.1864 26.5431 43.9109 26.8276 43.5716 26.8276H30.6353C30.296 26.8276 30.0205 26.5431 30.0205 26.1929H30.0212C30.0212 25.8427 30.2967 25.5582 30.636 25.5582Z" fill="white"/>
</g>
<defs>
<clipPath id="clip0_1002_340">
<rect width="59" height="36" fill="white" transform="translate(30 6)"/>
</clipPath>
</defs>
</svg>
