<svg width="20" height="20" viewBox="0 0 20 20" fill="none" xmlns="http://www.w3.org/2000/svg">
<g id="Group">
<path id="Vector (Stroke)" fill-rule="evenodd" clip-rule="evenodd" d="M2.0119 1.16667C1.54509 1.16667 1.16667 1.54509 1.16667 2.0119V6.29762C1.16667 6.76443 1.54509 7.14286 2.0119 7.14286H6.29762C6.76443 7.14286 7.14286 6.76443 7.14286 6.29762V2.0119C7.14286 1.54509 6.76443 1.16667 6.29762 1.16667H2.0119ZM0 2.0119C0 0.90076 0.90076 0 2.0119 0H6.29762C7.40876 0 8.30952 0.90076 8.30952 2.0119V6.29762C8.30952 7.40876 7.40876 8.30952 6.29762 8.30952H2.0119C0.90076 8.30952 0 7.40876 0 6.29762V2.0119Z" fill="#999999"/>
<path id="Vector (Stroke)_2" fill-rule="evenodd" clip-rule="evenodd" d="M13.4406 1.16667C12.9738 1.16667 12.5954 1.54509 12.5954 2.0119V6.29762C12.5954 6.76443 12.9738 7.14286 13.4406 7.14286H17.7263C18.1931 7.14286 18.5716 6.76443 18.5716 6.29762V2.0119C18.5716 1.54509 18.1931 1.16667 17.7263 1.16667H13.4406ZM11.4287 2.0119C11.4287 0.90076 12.3295 0 13.4406 0H17.7263C18.8375 0 19.7382 0.90076 19.7382 2.0119V6.29762C19.7382 7.40876 18.8375 8.30952 17.7263 8.30952H13.4406C12.3295 8.30952 11.4287 7.40876 11.4287 6.29762V2.0119Z" fill="#999999"/>
<path id="Vector (Stroke)_3" fill-rule="evenodd" clip-rule="evenodd" d="M2.0119 12.5953C1.54509 12.5953 1.16667 12.9737 1.16667 13.4405V17.7262C1.16667 18.193 1.54509 18.5714 2.0119 18.5714H6.29762C6.76443 18.5714 7.14286 18.193 7.14286 17.7262V13.4405C7.14286 12.9737 6.76443 12.5953 6.29762 12.5953H2.0119ZM0 13.4405C0 12.3293 0.90076 11.4286 2.0119 11.4286H6.29762C7.40876 11.4286 8.30952 12.3293 8.30952 13.4405V17.7262C8.30952 18.8374 7.40876 19.7381 6.29762 19.7381H2.0119C0.90076 19.7381 0 18.8374 0 17.7262V13.4405Z" fill="#999999"/>
<g id="Group_2">
<path id="Vector (Stroke)_4" fill-rule="evenodd" clip-rule="evenodd" d="M15.1218 12.7023C13.7856 12.7023 12.7023 13.7856 12.7023 15.1218C12.7023 16.4581 13.7856 17.5413 15.1218 17.5413C16.4581 17.5413 17.5413 16.4581 17.5413 15.1218C17.5413 13.7856 16.4581 12.7023 15.1218 12.7023ZM11.5356 15.1218C11.5356 13.1412 13.1412 11.5356 15.1218 11.5356C17.1024 11.5356 18.708 13.1412 18.708 15.1218C18.708 17.1024 17.1024 18.708 15.1218 18.708C13.1412 18.708 11.5356 17.1024 11.5356 15.1218Z" fill="#999999"/>
<path id="Vector (Stroke)_5" fill-rule="evenodd" clip-rule="evenodd" d="M16.8315 16.8314C17.0593 16.6036 17.4287 16.6036 17.6565 16.8314L19.7341 18.909C19.9619 19.1368 19.9619 19.5061 19.7341 19.734C19.5063 19.9618 19.1369 19.9618 18.9091 19.734L16.8315 17.6563C16.6037 17.4285 16.6037 17.0592 16.8315 16.8314Z" fill="#999999"/>
</g>
</g>
</svg>
