<svg width="23" height="22" viewBox="0 0 23 22" fill="none" xmlns="http://www.w3.org/2000/svg">
<g clip-path="url(#clip0_1160_1554)">
<path d="M17.9167 2.75H5.08333C4.06583 2.75 3.25 3.575 3.25 4.58333V17.4167C3.25 18.425 4.06583 19.25 5.08333 19.25H17.9167C18.925 19.25 19.75 18.425 19.75 17.4167V4.58333C19.75 3.575 18.9342 2.75 17.9167 2.75ZM17.9167 17.4167H5.08333V6.41667H17.9167V17.4167ZM12.875 11.9167C12.875 12.6775 12.2608 13.2917 11.5 13.2917C10.7392 13.2917 10.125 12.6775 10.125 11.9167C10.125 11.1558 10.7392 10.5417 11.5 10.5417C12.2608 10.5417 12.875 11.1558 12.875 11.9167ZM11.5 8.25C8.9975 8.25 6.86167 9.77167 6 11.9167C6.86167 14.0617 8.9975 15.5833 11.5 15.5833C14.0025 15.5833 16.1383 14.0617 17 11.9167C16.1383 9.77167 14.0025 8.25 11.5 8.25ZM11.5 14.2083C10.235 14.2083 9.20833 13.1817 9.20833 11.9167C9.20833 10.6517 10.235 9.625 11.5 9.625C12.765 9.625 13.7917 10.6517 13.7917 11.9167C13.7917 13.1817 12.765 14.2083 11.5 14.2083Z" fill="#ED1B24"/>
</g>
<defs>
<clipPath id="clip0_1160_1554">
<rect width="22" height="22" fill="white" transform="translate(0.5)"/>
</clipPath>
</defs>
</svg>
