<svg width="20" height="20" viewBox="0 0 20 20" fill="none" xmlns="http://www.w3.org/2000/svg">
<g id="logo-smm">
<path id="Vector" d="M0.840972 16.4286C0.838077 16.3952 0.834217 16.3686 0.834217 16.343C0.834217 15.8482 0.834217 15.3533 0.833252 14.8585C0.833252 14.7906 0.849657 14.764 0.922033 14.7493C1.66799 14.5948 2.39657 14.3784 3.11358 14.1187C4.02648 13.7871 4.90851 13.3857 5.75386 12.9047C6.66869 12.3842 7.52466 11.7782 8.30921 11.0679C9.27037 10.1973 10.08 9.20267 10.715 8.06049C11.2757 7.0521 11.6771 5.98075 11.9039 4.84644C11.9994 4.36931 12.0554 3.88331 12.1278 3.40027C12.1345 3.35403 12.1509 3.33337 12.1973 3.33337C12.4202 3.33436 12.6431 3.33633 12.865 3.33337C12.9316 3.33337 12.9287 3.37174 12.9287 3.417C12.9287 3.73378 12.9287 4.04957 12.9287 4.36635C12.9287 4.54737 12.9287 4.72839 12.9287 4.92712C13.0368 4.92712 13.142 4.92712 13.2462 4.92712C13.3958 4.92712 13.3968 4.92711 13.4074 5.07665C13.4605 5.81646 13.5878 6.54348 13.7876 7.25673C14.0858 8.32316 14.5307 9.31777 15.1637 10.2229C15.5902 10.8328 16.1104 11.3503 16.674 11.8245C17.4228 12.4551 18.2353 12.9863 19.0942 13.4467C19.1454 13.4743 19.1666 13.5038 19.1666 13.5638C19.1647 14.0724 19.1656 14.5801 19.1647 15.0887C19.1647 15.1172 19.1608 15.1457 19.1579 15.19C19.0209 15.1379 18.8945 15.0916 18.7709 15.0405C17.7606 14.6243 16.7994 14.1118 15.8933 13.4959C14.99 12.882 14.1611 12.1777 13.4527 11.3326C13.17 10.9951 12.9123 10.639 12.6846 10.2602C12.6576 10.215 12.6412 10.155 12.6402 10.1019C12.6363 9.8018 12.6383 9.50273 12.6238 9.19578C12.5823 9.26563 12.5408 9.33548 12.4983 9.40435C11.984 10.2425 11.3644 10.9942 10.6677 11.6808C9.98351 12.3557 9.23756 12.9499 8.44142 13.4802C7.44167 14.1462 6.38208 14.6922 5.27618 15.1458C4.24458 15.5688 3.18596 15.9003 2.10514 16.162C1.71141 16.2574 1.31286 16.3352 0.917208 16.4198C0.895013 16.4247 0.870887 16.4237 0.840972 16.4266V16.4286ZM12.4028 3.65015C12.4028 3.68655 12.4028 3.71312 12.4028 3.73968C12.4028 5.22914 12.4028 6.7186 12.4028 8.20806C12.4028 8.24741 12.3951 8.28971 12.3787 8.32414C12.1316 8.82194 11.846 9.29515 11.5208 9.74375C11.0296 10.4226 10.4689 11.0365 9.85034 11.5962C9.22405 12.1629 8.55047 12.6636 7.84022 13.1132C6.99872 13.6455 6.1167 14.097 5.20187 14.4827C4.21949 14.8969 3.21298 15.2402 2.18138 15.5048C1.87643 15.5835 1.56763 15.6485 1.26075 15.7213C1.23566 15.7272 1.1961 15.7459 1.19417 15.7616C1.18645 15.8324 1.19127 15.9043 1.19127 15.9859C1.27909 15.9682 1.35146 15.9544 1.42384 15.9397C2.58958 15.6898 3.7254 15.3396 4.83613 14.9008C5.99994 14.4414 7.11549 13.8816 8.16832 13.1959C9.0156 12.644 9.80499 12.0193 10.521 11.2991C11.322 10.4934 11.9985 9.59028 12.5302 8.57599C12.6084 8.42548 12.6547 8.27791 12.6537 8.10181C12.647 6.64973 12.6498 5.19864 12.6498 3.74657C12.6498 3.71508 12.646 3.6836 12.6441 3.65015H12.4038H12.4028ZM12.9268 5.20848C12.9268 5.24488 12.9249 5.27734 12.9268 5.30883C12.9442 5.52624 12.9548 5.74563 12.9808 5.96206C13.0503 6.53266 13.1574 7.09637 13.309 7.65123C13.4884 8.31136 13.7278 8.94787 14.0414 9.55487C14.3772 10.2052 14.8144 10.7807 15.3094 11.3119C15.7591 11.795 16.2522 12.2288 16.7733 12.6292C17.3948 13.1073 18.053 13.5245 18.7468 13.8845C18.7642 13.8934 18.7854 13.8983 18.8144 13.9081C18.8144 13.8324 18.8192 13.7645 18.8124 13.6986C18.8086 13.6681 18.7873 13.6278 18.7622 13.613C18.5808 13.5058 18.3955 13.4084 18.2141 13.3011C17.2443 12.7266 16.3555 12.0439 15.5709 11.2263C15.0855 10.7207 14.6551 10.1707 14.3193 9.54798C13.9468 8.85736 13.6795 8.12542 13.4894 7.36397C13.3476 6.79632 13.2462 6.2208 13.196 5.63643C13.1835 5.49476 13.1719 5.3531 13.1603 5.20848H12.9297H12.9268Z" fill="#999999"/>
</g>
</svg>
