<svg width="48" height="49" viewBox="0 0 48 49" fill="none" xmlns="http://www.w3.org/2000/svg">
<path d="M0 24.8241C0 11.5693 10.7452 0.824097 24 0.824097C37.2548 0.824097 48 11.5693 48 24.8241C48 38.0789 37.2548 48.8241 24 48.8241C10.7452 48.8241 0 38.0789 0 24.8241Z" fill="#F5F5F5"/>
<g clip-path="url(#clip0_93_3249)">
<path d="M35.766 25.1005C35.766 24.2848 35.6999 23.4647 35.5588 22.6622H24.24V27.2832H30.7217C30.4528 28.7735 29.5885 30.0919 28.323 30.9297V33.928H32.19C34.4608 31.838 35.766 28.7515 35.766 25.1005Z" fill="#4285F4"/>
<path d="M24.2401 36.8249C27.4766 36.8249 30.2059 35.7623 32.1945 33.928L28.3276 30.9296C27.2517 31.6616 25.8627 32.0761 24.2445 32.0761C21.1139 32.0761 18.4595 29.964 17.507 27.1244H13.5166V30.2153C15.5537 34.2675 19.7029 36.8249 24.2401 36.8249Z" fill="#34A853"/>
<path d="M17.5025 27.1244C16.9999 25.634 16.9999 24.0202 17.5025 22.5298V19.4389H13.5165C11.8145 22.8297 11.8145 26.8245 13.5165 30.2153L17.5025 27.1244Z" fill="#FBBC04"/>
<path d="M24.2401 17.5738C25.9509 17.5473 27.6044 18.1911 28.8434 19.3728L32.2695 15.9467C30.1001 13.9096 27.2208 12.7896 24.2401 12.8249C19.7029 12.8249 15.5537 15.3823 13.5166 19.4389L17.5026 22.5298C18.4506 19.6858 21.1095 17.5738 24.2401 17.5738Z" fill="#EA4335"/>
</g>
<defs>
<clipPath id="clip0_93_3249">
<rect width="24" height="24" fill="white" transform="translate(12 12.8241)"/>
</clipPath>
</defs>
</svg>
