<svg width="48" height="49" viewBox="0 0 48 49" fill="none" xmlns="http://www.w3.org/2000/svg">
<path d="M0 24.8241C0 11.5693 10.7452 0.824097 24 0.824097C37.2548 0.824097 48 11.5693 48 24.8241C48 38.0789 37.2548 48.8241 24 48.8241C10.7452 48.8241 0 38.0789 0 24.8241Z" fill="#F5F5F5"/>
<path d="M34.5 23.6975C34.5 18.9425 29.7899 15.0741 23.9999 15.0741C18.2107 15.0741 13.5 18.9425 13.5 23.6975C13.5 27.9603 17.2355 31.5303 22.2813 32.2054C22.6233 32.28 23.0887 32.4336 23.2064 32.7294C23.3123 32.9981 23.2757 33.4189 23.2402 33.6903C23.2402 33.6903 23.1171 34.4401 23.0905 34.5998C23.0448 34.8685 22.8795 35.6506 23.9999 35.1727C25.1207 34.6948 30.0469 31.5693 32.2498 29.0031C33.7715 27.3144 34.5 25.6006 34.5 23.6975Z" fill="#2CCF54"/>
<path d="M21.8665 21.3924H21.13C21.0171 21.3924 20.9253 21.485 20.9253 21.5987V26.2236C20.9253 26.3376 21.0171 26.4299 21.13 26.4299H21.8665C21.9794 26.4299 22.071 26.3376 22.071 26.2236V21.5987C22.071 21.485 21.9794 21.3924 21.8665 21.3924Z" fill="white"/>
<path d="M26.936 21.3924H26.1995C26.0866 21.3924 25.995 21.485 25.995 21.5987V24.3464L23.8984 21.4842C23.8596 21.4254 23.7967 21.3962 23.7281 21.3924H22.9918C22.8789 21.3924 22.7871 21.485 22.7871 21.5987V26.2236C22.7871 26.3376 22.8789 26.4299 22.9918 26.4299H23.7281C23.8412 26.4299 23.9328 26.3376 23.9328 26.2236V23.4767L26.032 26.3426C26.0697 26.3966 26.1337 26.4299 26.1995 26.4299H26.936C27.0491 26.4299 27.1405 26.3376 27.1405 26.2236V21.5987C27.1405 21.485 27.0491 21.3924 26.936 21.3924Z" fill="white"/>
<path d="M20.0913 25.2719H18.0901V21.599C18.0901 21.4849 17.9985 21.3923 17.8858 21.3923H17.1491C17.0362 21.3923 16.9446 21.4849 16.9446 21.599V26.2231C16.9446 26.3354 17.0358 26.4301 17.1489 26.4301H20.0913C20.2042 26.4301 20.2954 26.3373 20.2954 26.2231V25.4786C20.2954 25.3645 20.2042 25.2719 20.0913 25.2719Z" fill="white"/>
<path d="M31.0032 22.5505C31.1161 22.5505 31.2073 22.4581 31.2073 22.3437V21.5992C31.2073 21.4851 31.1161 21.3923 31.0032 21.3923H28.061C27.948 21.3923 27.8564 21.4868 27.8564 21.599V26.2233C27.8564 26.3353 27.9477 26.4301 28.0605 26.4301H31.0032C31.1161 26.4301 31.2073 26.3373 31.2073 26.2233V25.4786C31.2073 25.3647 31.1161 25.2719 31.0032 25.2719H29.0022V24.4902H31.0032C31.1161 24.4902 31.2073 24.3976 31.2073 24.2834V23.5389C31.2073 23.4248 31.1161 23.332 31.0032 23.332H29.0022V22.5505H31.0032Z" fill="white"/>
</svg>
