<svg width="48" height="49" viewBox="0 0 48 49" fill="none" xmlns="http://www.w3.org/2000/svg">
<path d="M0 24.8241C0 11.5693 10.7452 0.824097 24 0.824097C37.2548 0.824097 48 11.5693 48 24.8241C48 38.0789 37.2548 48.8241 24 48.8241C10.7452 48.8241 0 38.0789 0 24.8241Z" fill="#F5F5F5"/>
<g clip-path="url(#clip0_93_3250)">
<path d="M36 24.8241C36 18.1967 30.6274 12.8241 24 12.8241C17.3726 12.8241 12 18.1967 12 24.8241C12 30.8135 16.3882 35.7781 22.125 36.6783V28.2928H19.0781V24.8241H22.125V22.1803C22.125 19.1728 23.9166 17.5116 26.6576 17.5116C27.9701 17.5116 29.3438 17.746 29.3438 17.746V20.6991H27.8306C26.34 20.6991 25.875 21.6242 25.875 22.5741V24.8241H29.2031L28.6711 28.2928H25.875V36.6783C31.6118 35.7781 36 30.8135 36 24.8241Z" fill="#1877F2"/>
<path d="M28.6711 28.2928L29.2031 24.8241H25.875V22.5741C25.875 21.6251 26.34 20.6991 27.8306 20.6991H29.3438V17.746C29.3438 17.746 27.9705 17.5116 26.6576 17.5116C23.9166 17.5116 22.125 19.1728 22.125 22.1803V24.8241H19.0781V28.2928H22.125V36.6783C23.3674 36.8727 24.6326 36.8727 25.875 36.6783V28.2928H28.6711Z" fill="white"/>
</g>
<defs>
<clipPath id="clip0_93_3250">
<rect width="24" height="24" fill="white" transform="translate(12 12.8241)"/>
</clipPath>
</defs>
</svg>
